<mxfile host="app.diagrams.net" agent="Mozilla/5.0 (Windows NT 10.0; Win64; x64) AppleWebKit/537.36 (KHTML, like Gecko) Chrome/126.0.0.0 Safari/537.36" version="24.7.5">
  <diagram name="PÃ¡gina-1" id="c_J3Db68FZ4qvaQxM7Q2">
    <mxGraphModel dx="1114" dy="1769" grid="1" gridSize="10" guides="1" tooltips="1" connect="1" arrows="1" fold="1" page="1" pageScale="1" pageWidth="827" pageHeight="1169" math="0" shadow="0">
      <root>
        <mxCell id="0" />
        <mxCell id="1" parent="0" />
        <mxCell id="emIcc8j3XjxDpn-GUHN--57" style="edgeStyle=orthogonalEdgeStyle;rounded=0;orthogonalLoop=1;jettySize=auto;html=1;strokeColor=default;flowAnimation=1;" edge="1" parent="1" source="emIcc8j3XjxDpn-GUHN--15" target="emIcc8j3XjxDpn-GUHN--52">
          <mxGeometry relative="1" as="geometry" />
        </mxCell>
        <mxCell id="emIcc8j3XjxDpn-GUHN--15" value="" style="image;points=[];aspect=fixed;html=1;align=center;shadow=0;dashed=0;image=img/lib/allied_telesis/computer_and_terminals/Personal_Computer.svg;labelBackgroundColor=none;" vertex="1" parent="1">
          <mxGeometry x="55" y="50.24" width="55" height="74.54" as="geometry" />
        </mxCell>
        <mxCell id="emIcc8j3XjxDpn-GUHN--16" value="" style="image;points=[];aspect=fixed;html=1;align=center;shadow=0;dashed=0;image=img/lib/allied_telesis/computer_and_terminals/Personal_Computer.svg;labelBackgroundColor=none;" vertex="1" parent="1">
          <mxGeometry x="62.2" y="196.2" width="45.6" height="61.800000000000004" as="geometry" />
        </mxCell>
        <mxCell id="emIcc8j3XjxDpn-GUHN--59" style="edgeStyle=orthogonalEdgeStyle;rounded=0;orthogonalLoop=1;jettySize=auto;html=1;strokeColor=default;flowAnimation=1;" edge="1" parent="1" source="emIcc8j3XjxDpn-GUHN--17">
          <mxGeometry relative="1" as="geometry">
            <mxPoint x="330" y="260" as="targetPoint" />
          </mxGeometry>
        </mxCell>
        <mxCell id="emIcc8j3XjxDpn-GUHN--17" value="" style="image;points=[];aspect=fixed;html=1;align=center;shadow=0;dashed=0;image=img/lib/allied_telesis/computer_and_terminals/Personal_Computer.svg;labelBackgroundColor=none;" vertex="1" parent="1">
          <mxGeometry x="62.2" y="310" width="45.6" height="61.800000000000004" as="geometry" />
        </mxCell>
        <mxCell id="emIcc8j3XjxDpn-GUHN--25" value="cliente1" style="text;html=1;align=center;verticalAlign=middle;resizable=0;points=[];autosize=1;strokeColor=none;fillColor=none;labelBackgroundColor=none;" vertex="1" parent="1">
          <mxGeometry x="50" y="118" width="60" height="30" as="geometry" />
        </mxCell>
        <mxCell id="emIcc8j3XjxDpn-GUHN--26" value="cliente2" style="text;html=1;align=center;verticalAlign=middle;resizable=0;points=[];autosize=1;strokeColor=none;fillColor=none;labelBackgroundColor=none;" vertex="1" parent="1">
          <mxGeometry x="50" y="258" width="60" height="30" as="geometry" />
        </mxCell>
        <mxCell id="emIcc8j3XjxDpn-GUHN--27" value="cliente3" style="text;html=1;align=center;verticalAlign=middle;resizable=0;points=[];autosize=1;strokeColor=none;fillColor=none;labelBackgroundColor=none;" vertex="1" parent="1">
          <mxGeometry x="55" y="371.8" width="60" height="30" as="geometry" />
        </mxCell>
        <mxCell id="emIcc8j3XjxDpn-GUHN--70" style="edgeStyle=orthogonalEdgeStyle;rounded=0;orthogonalLoop=1;jettySize=auto;html=1;flowAnimation=1;" edge="1" parent="1" source="emIcc8j3XjxDpn-GUHN--52" target="emIcc8j3XjxDpn-GUHN--69">
          <mxGeometry relative="1" as="geometry" />
        </mxCell>
        <mxCell id="emIcc8j3XjxDpn-GUHN--52" value="Services" style="html=1;whiteSpace=wrap;strokeColor=none;fillColor=#0079D6;labelPosition=center;verticalLabelPosition=middle;verticalAlign=top;align=center;fontSize=12;outlineConnect=0;spacingTop=-6;fontColor=#FFFFFF;sketch=0;shape=mxgraph.sitemap.services;" vertex="1" parent="1">
          <mxGeometry x="270" y="188" width="120" height="70" as="geometry" />
        </mxCell>
        <mxCell id="emIcc8j3XjxDpn-GUHN--55" value="aplicacao" style="text;html=1;align=center;verticalAlign=middle;resizable=0;points=[];autosize=1;strokeColor=none;fillColor=none;" vertex="1" parent="1">
          <mxGeometry x="295" y="270" width="70" height="30" as="geometry" />
        </mxCell>
        <mxCell id="emIcc8j3XjxDpn-GUHN--58" style="edgeStyle=orthogonalEdgeStyle;rounded=0;orthogonalLoop=1;jettySize=auto;html=1;entryX=0.083;entryY=0.559;entryDx=0;entryDy=0;entryPerimeter=0;strokeColor=default;flowAnimation=1;" edge="1" parent="1" source="emIcc8j3XjxDpn-GUHN--16" target="emIcc8j3XjxDpn-GUHN--52">
          <mxGeometry relative="1" as="geometry" />
        </mxCell>
        <mxCell id="emIcc8j3XjxDpn-GUHN--61" value="" style="strokeWidth=2;html=1;shape=mxgraph.flowchart.database;whiteSpace=wrap;fillColor=#cce5ff;strokeColor=#36393d;" vertex="1" parent="1">
          <mxGeometry x="770" y="70" width="200" height="170" as="geometry" />
        </mxCell>
        <mxCell id="emIcc8j3XjxDpn-GUHN--62" value="base de dados" style="text;html=1;align=center;verticalAlign=middle;resizable=0;points=[];autosize=1;strokeColor=none;fillColor=none;" vertex="1" parent="1">
          <mxGeometry x="840" y="260" width="100" height="30" as="geometry" />
        </mxCell>
        <mxCell id="emIcc8j3XjxDpn-GUHN--64" value="servidor" style="text;html=1;align=center;verticalAlign=middle;resizable=0;points=[];autosize=1;strokeColor=none;fillColor=none;" vertex="1" parent="1">
          <mxGeometry x="520" y="40" width="70" height="30" as="geometry" />
        </mxCell>
        <mxCell id="emIcc8j3XjxDpn-GUHN--71" style="edgeStyle=orthogonalEdgeStyle;rounded=0;orthogonalLoop=1;jettySize=auto;html=1;flowAnimation=1;" edge="1" parent="1" source="emIcc8j3XjxDpn-GUHN--69" target="emIcc8j3XjxDpn-GUHN--61">
          <mxGeometry relative="1" as="geometry" />
        </mxCell>
        <mxCell id="emIcc8j3XjxDpn-GUHN--69" value="" style="image;aspect=fixed;perimeter=ellipsePerimeter;html=1;align=center;shadow=0;dashed=0;spacingTop=3;image=img/lib/active_directory/generic_server.svg;" vertex="1" parent="1">
          <mxGeometry x="500" y="91.57" width="110" height="196.43" as="geometry" />
        </mxCell>
        <mxCell id="emIcc8j3XjxDpn-GUHN--76" value="&lt;font style=&quot;font-size: 20px;&quot;&gt;Arquitetura cliente Servidor&lt;/font&gt;" style="text;html=1;align=center;verticalAlign=middle;resizable=0;points=[];autosize=1;strokeColor=none;fillColor=none;" vertex="1" parent="1">
          <mxGeometry x="380" y="-7" width="260" height="40" as="geometry" />
        </mxCell>
      </root>
    </mxGraphModel>
  </diagram>
</mxfile>
